<svg xmlns="http://www.w3.org/2000/svg" viewBox="0 0 128 128" role="img" aria-labelledby="title desc">
  <title id="title">タイムマネージャ アイコン</title>
  <desc id="desc">青を基調とした時計アイコン</desc>
  <defs>
    <linearGradient id="bg" x1="0" y1="0" x2="1" y2="1">
      <stop offset="0%" stop-color="#0ea5e9" />
      <stop offset="100%" stop-color="#1d4ed8" />
    </linearGradient>
    <linearGradient id="hand" x1="0" y1="1" x2="1" y2="0">
      <stop offset="0%" stop-color="#f8fafc" />
      <stop offset="100%" stop-color="#e0f2fe" />
    </linearGradient>
  </defs>
  <g>
    <circle cx="64" cy="64" r="58" fill="url(#bg)" />
    <circle cx="64" cy="64" r="44" fill="rgba(15,23,42,0.08)" />
    <circle cx="64" cy="64" r="8" fill="#f8fafc" />
    <path d="M64 28a4 4 0 0 1 4 4v28l18 14a4 4 0 0 1-4.8 6.4l-20-16A4 4 0 0 1 60 62V32a4 4 0 0 1 4-4z" fill="url(#hand)" />
    <g fill="#f8fafc">
      <rect x="62" y="12" width="4" height="12" rx="2" />
      <rect x="62" y="104" width="4" height="12" rx="2" />
      <rect x="12" y="62" width="12" height="4" rx="2" />
      <rect x="104" y="62" width="12" height="4" rx="2" />
    </g>
  </g>
</svg>
